#!OML:ASF I:\golf\golf\golf 2\Subject 1\2002-09-07\Subject1.ASF
:FULLY-SPECIFIED
:DEGREES
386
root -6.24815 18.1833 -1.46625 -175.547 42.295 -179.918
lowerback -6.57889 2.35963 5.93344
upperback 0.723737 3.64729 13.4577
thorax 3.90094 2.41141 11.6195
lowerneck -6.79584 -16.5842 -5.4758
upperneck 31.5448 -18.7069 -6.3233
head 11.2597 -8.9323 -3.37226
rclavicle -4.74598e-014 2.57625e-013
rhumerus 7.1374 17.1928 -97.1837
rradius 19.635
rwrist -43.1035
rhand -10.7094 -16.274
rfingers 7.12502
rthumb 15.3004 -45.688
lclavicle -4.74598e-014 2.57625e-013
lhumerus 4.601 -41.4882 100.555
lradius 20.0324
lwrist 39.7864
lhand 0.507485 65.5276
lfingers 7.12502
lthumb -153.924 86.2424
rfemur -0.747433 -2.35612 5.53153
rtibia 33.9954
rfoot 7.18512 -27.6115
rtoes 22.0122
lfemur -13.3526 -3.84346 -17.9872
ltibia 10.7439
lfoot 0.728463 -28.6628
ltoes 7.19582
387
root -6.22715 18.1723 -1.51076 -175.718 41.1695 -179.614
lowerback -6.56367 3.16499 6.66463
upperback 0.686662 4.75622 13.4484
thorax 3.73236 3.01177 11.2725
lowerneck -6.90026 -17.4138 -5.5444
upperneck 31.1885 -20.0692 -5.71225
head 11.214 -9.48492 -3.30562
rclavicle -5.9039e-014 3.81667e-014
rhumerus 9.87451 21.5524 -96.1582
rradius 19.8501
rwrist -38.8563
rhand -6.4792 -14.319
rfingers 7.12502
rthumb 19.3716 -43.3741
lclavicle -5.9039e-014 3.81667e-014
lhumerus 6.08233 -39.3421 99.6658
lradius 20.8037
lwrist 42.834
lhand -2.30804 64.6055
lfingers 7.12502
lthumb -156.622 86.7943
rfemur 0.343362 -2.69453 5.80137
rtibia 33.6245
rfoot 7.19268 -27.9337
rtoes 23.1019
lfemur -13.417 -4.4959 -17.9098
ltibia 11.7298
lfoot 0.720959 -28.952
ltoes 9.39118
388
root -6.21411 18.1627 -1.55119 -175.641 40.0333 -179.253
lowerback -6.50231 3.93216 7.37574
upperback 0.513691 5.85699 13.479
thorax 3.41199 3.61288 10.9671
lowerneck -6.82137 -18.1509 -5.40853
upperneck 30.5239 -21.3183 -5.22178
head 10.9824 -10.0006 -3.24962
rclavicle 7.03698e-014 1.04958e-013
rhumerus 12.7921 26.9332 -94.1765
rradius 21.1217
rwrist -36.2191
rhand -4.04985 -14.4437
rfingers 7.12502
rthumb 21.7061 -43.2468
lclavicle 7.03698e-014 1.04958e-013
lhumerus 7.49753 -37.209 98.8812
lradius 21.9562
lwrist 45.7418
lhand -4.3868 63.3764
lfingers 7.12502
lthumb -158.618 87.7834
rfemur 1.19816 -3.13091 6.12833
rtibia 33.1877
rfoot 7.30748 -28.1769
rtoes 23.4369
lfemur -13.8305 -5.02736 -17.7629
ltibia 12.8417
lfoot 0.778721 -29.3413
ltoes 11.5097
389
root -6.20382 18.1555 -1.58639 -175.434 38.8481 -178.704
lowerback -6.14843 4.60305 8.15875
upperback 0.142414 6.93113 13.5725
thorax 2.73733 4.21142 10.6277
lowerneck -6.459 -18.7931 -5.18353
upperneck 29.7784 -22.3934 -4.86298
head 10.6469 -10.4488 -3.18569
rclavicle -1.33583e-013 -2.63986e-013
rhumerus 16.0082 32.4 -91.4089
rradius 22.7458
rwrist -34.4352
rhand -2.59485 -13.6033
rfingers 7.12502
rthumb 23.1027 -42.2382
lclavicle -1.33583e-013 -2.63986e-013
lhumerus 8.44783 -34.873 98.389
lradius 23.5504
lwrist 47.9232
lhand -7.25885 61.9283
lfingers 7.12502
lthumb -161.378 88.943
rfemur 2.03571 -3.45307 6.69118
rtibia 32.7286
rfoot 6.9175 -28.6347
rtoes 24.4571
lfemur -14.2971 -5.44129 -17.4235
ltibia 13.9346
lfoot 0.00740536 -30.1227
ltoes 11.0492
390
root -6.1929 18.1543 -1.61406 -174.836 37.618 -177.735
lowerback -5.79906 5.20005 9.19031
upperback -0.246368 7.94328 13.7599
thorax 2.08792 4.78851 10.2478
lowerneck -6.24459 -19.3443 -4.98376
upperneck 29.0286 -23.3459 -4.42712
head 10.3595 -10.8424 -3.09718
rclavicle 4.81059e-014 1.17681e-013
rhumerus 19.3955 36.0137 -88.7175
rradius 24.5048
rwrist -31.4526
rhand -1.11727 -11.8949
rfingers 7.12502
rthumb 24.5198 -40.3451
lclavicle 4.81059e-014 1.17681e-013
lhumerus 9.48599 -32.9268 97.6107
lradius 25.7593
lwrist 50.1176
lhand -10.4608 60.557
lfingers 7.12502
lthumb -164.46 -90.0474
rfemur 2.688 -3.57073 7.79942
rtibia 32.2763
rfoot 6.35248 -29.3072
rtoes 25.6159
lfemur -14.8793 -5.66934 -16.6461
ltibia 14.8408
lfoot -0.671109 -31.0903
ltoes 10.2501
391
root -6.18223 18.154 -1.64623 -174.421 36.4726 -177.043
lowerback -5.51524 5.78366 10.0851
upperback -0.536228 8.90484 13.8527
thorax 1.60819 5.31912 9.85162
lowerneck -6.18772 -19.7984 -4.72006
upperneck 28.2213 -24.1882 -3.91245
head 10.0887 -11.1826 -2.99385
rclavicle -5.96354e-014 -3.81667e-014
rhumerus 22.2389 37.318 -87.1426
rradius 26.575
rwrist -26.8871
rhand 0.384333 -10.733
rfingers 7.12502
rthumb 25.9584 -38.9803
lclavicle -5.96354e-014 -3.81667e-014
lhumerus 10.5859 -31.3154 96.476
lradius 28.5416
lwrist 52.0683
lhand -11.6341 59.8198
lfingers 7.12502
lthumb -165.59 -90.7004
rfemur 3.30937 -3.68424 8.65405
rtibia 31.8333
rfoot 6.06803 -29.877
rtoes 26.768
lfemur -15.3519 -5.89738 -16.1005
ltibia 15.5787
lfoot -1.00697 -31.8378
ltoes 9.86451
392
root -6.17005 18.143 -1.69538 -174.9 35.4825 -177.455
lowerback -5.07927 6.35081 10.2091
upperback -0.745033 9.80266 13.6747
thorax 1.10301 5.76717 9.53622
lowerneck -6.26153 -20.1571 -4.33561
upperneck 27.4435 -24.8958 -3.44411
head 9.83347 -11.4595 -2.91846
rclavicle 6.04305e-014 8.26944e-014
rhumerus 25.8836 39.1914 -84.7819
rradius 28.1009
rwrist -24.5095
rhand 1.44903 -9.12629
rfingers 7.12502
rthumb 26.9775 -37.2202
lclavicle 6.04305e-014 8.26944e-014
lhumerus 11.4779 -29.3998 95.4608
lradius 31.3325
lwrist 52.3896
lhand -12.7248 58.8334
lfingers 7.12502
lthumb -166.642 -91.6148
rfemur 4.24494 -4.02929 8.26093
rtibia 31.3968
rfoot 6.16765 -29.9625
rtoes 27.501
lfemur -15.3989 -6.32133 -16.6284
ltibia 16.1998
lfoot -0.557861 -32.1475
ltoes 11.7327
393
root -6.15767 18.1295 -1.73948 -175.253 34.5064 -177.801
lowerback -4.37381 6.87764 10.3865
upperback -1.14992 10.7208 13.4161
thorax 0.270705 6.21357 9.02104
lowerneck -6.38942 -20.4689 -3.85615
upperneck 26.923 -25.5012 -3.08824
head 9.65358 -11.6743 -2.89614
rclavicle -6.36111e-015 1.11319e-013
rhumerus 29.3263 40.5163 -82.7044
rradius 29.7359
rwrist -23.0971
rhand 2.58268 -7.3375
rfingers 7.12502
rthumb 28.0617 -35.2588
lclavicle -6.36111e-015 1.11319e-013
lhumerus 12.0413 -27.5242 94.5515
lradius 34.1127
lwrist 52.0352
lhand -15.6527 56.3117
lfingers 7.12502
lthumb -169.465 -93.9723
rfemur 5.06394 -4.24702 7.98772
rtibia 30.9904
rfoot 6.40959 -29.9179
rtoes 26.9859
lfemur -15.4865 -6.61626 -17.079
ltibia 16.6414
lfoot 0.727824 -32.4351
ltoes 15.4465
394
root -6.14645 18.1249 -1.77732 -175.117 33.4387 -177.633
lowerback -3.89004 7.30114 10.9143
upperback -1.56202 11.4981 13.2752
thorax -0.390975 6.60282 8.48234
lowerneck -6.46215 -20.6809 -3.4121
upperneck 26.3125 -25.9651 -2.69187
head 9.4447 -11.8336 -2.83197
rclavicle -4.77083e-015 -1.59028e-013
rhumerus 32.7967 41.5701 -80.738
rradius 31.457
rwrist -21.3936
rhand 3.32228 -5.7905
rfingers 7.12502
rthumb 28.7685 -33.5938
lclavicle -4.77083e-015 -1.59028e-013
lhumerus 12.7655 -26.2281 93.157
lradius 37.2159
lwrist 52.3423
lhand -17.7243 53.088
lfingers 7.12502
lthumb -171.464 -97.1046
rfemur 5.64819 -4.27753 8.3647
rtibia 30.5966
rfoot 5.83501 -30.3405
rtoes 28.1107
lfemur -15.7778 -6.80249 -16.9987
ltibia 16.9564
lfoot 1.65724 -32.9445
ltoes 17.5893
395
root -6.13299 18.1252 -1.81628 -174.965 32.3034 -177.602
lowerback -3.58596 7.71966 11.3047
upperback -1.99971 12.2295 13.0505
thorax -0.966142 6.95772 7.95156
lowerneck -6.16338 -20.8856 -3.01359
upperneck 25.3028 -26.4576 -2.02486
head 9.0826 -12.0144 -2.62097
rclavicle -3.18055e-014 9.54166e-014
rhumerus 35.7646 41.8805 -79.6095
rradius 32.9962
rwrist -18.4475
rhand 3.67744 -4.03025
rfingers 7.12502
rthumb 29.1077 -31.7754
lclavicle -3.18055e-014 9.54166e-014
lhumerus 13.6558 -25.333 91.4461
lradius 40.2621
lwrist 52.5715
lhand -18.879 50.6002
lfingers 7.12502
lthumb -172.578 -99.5499
rfemur 6.1314 -4.32975 8.67035
rtibia 30.197
rfoot 5.69661 -30.8336
rtoes 28.9202
lfemur -16.1694 -7.15791 -17.013
ltibia 17.3111
lfoot 1.96174 -33.447
ltoes 18.2161
